# xmcd
#
# Track frame offsets:
#	150
#	14642
#	32417
#	53237
#	74007
#	91632
#	127665
#	143900
#	176982
#	205980
#	225417
#	247897
#
# Disc length: 3607 seconds
#
# Revision: 4
# Processed by: cddbd v1.5.2PL0 Copyright (c) Steve Scherf et al.
# Submitted via: audiograbber 1.83.01
#
DISCID=9d0e150c
DTITLE=Various Artist - Motown Memories - Volume 4 - Where Were You When...
DYEAR=1900
DGENRE=Oldies
TTITLE0=Supremes - Up The Ladder To The Roof
TTITLE1=Jackson Five - I'll Be There
TTITLE2=Eddie Kendricks - Skippin' Work Today
TTITLE3=Temptations - A Song For You
TTITLE4=Charlene - I've Never Been To Me
TTITLE5=Rick James - You And I
TTITLE6=Bonnie Pointer - Heaven Must Have Sent You
TTITLE7=Rick James and Teena Marie - Fire And Desire
TTITLE8=Teena Marie - Square Biz
TTITLE9=Rick James and The Temptations - Standing On The Top
TTITLE10=Rockwell - Somebody's Watching Me
TTITLE11=Commodores - Nightshift
EXTD=
EXTT0=
EXTT1=
EXTT2=
EXTT3=
EXTT4=
EXTT5=
EXTT6=
EXTT7=
EXTT8=
EXTT9=
EXTT10=
EXTT11=
PLAYORDER=
